<?xml version="1.0" standalone="no"?><!DOCTYPE svg PUBLIC "-//W3C//DTD SVG 1.1//EN" "http://www.w3.org/Graphics/SVG/1.1/DTD/svg11.dtd"><svg t="1780926836442" class="icon" viewBox="0 0 1024 1024" version="1.1" xmlns="http://www.w3.org/2000/svg" p-id="2225" xmlns:xlink="http://www.w3.org/1999/xlink" width="200" height="200"><path d="M772.89 858.21c-5.12 0-10.25-1.96-14.15-5.87l-142-142.24c-5.71-5.72-13.32-8.88-21.41-8.88H455.57c-116.5 0-211.28-94.78-211.28-211.28v-87.46c0-11.05 8.95-20 20-20s20 8.95 20 20v87.46c0 94.44 76.84 171.28 171.28 171.28h139.76c18.79 0 36.44 7.32 49.71 20.62l142 142.24c7.8 7.82 7.79 20.48-0.02 28.28-3.9 3.9-9.02 5.85-14.13 5.85z" fill="#e6e6e6" p-id="2226"></path><path d="M842 655.86c-5.12 0-10.24-1.95-14.15-5.86L417.71 239.58c-19.85-19.86-46.24-30.8-74.31-30.8-34.85 0-67.35 17.22-86.92 46.05l-41.57 61.24 49.87 0.26c11.05 0.06 19.95 9.06 19.9 20.1-0.06 11.01-9 19.9-20 19.9h-0.11l-59.35-0.31a34.904 34.904 0 0 1-30.74-18.66 34.868 34.868 0 0 1 2.01-35.91l46.9-69.08a144.908 144.908 0 0 1 120.02-63.59c38.76 0 75.2 15.1 102.6 42.52l410.15 410.42c7.81 7.81 7.8 20.48 0 28.28-3.9 3.9-9.02 5.85-14.14 5.85zM804.09 756.85c-5.12 0-10.24-1.95-14.14-5.86L687.07 648.11c-7.81-7.81-7.81-20.47 0-28.28 7.81-7.81 20.47-7.81 28.28 0l102.88 102.88c7.81 7.81 7.81 20.47 0 28.28a19.92 19.92 0 0 1-14.14 5.86zM470.36 848.34c-3.55 0-7.15-0.95-10.4-2.93-9.43-5.75-12.41-18.06-6.65-27.49l49.42-80.98c5.75-9.43 18.06-12.41 27.49-6.65 9.43 5.75 12.41 18.06 6.65 27.49l-49.42 80.98c-3.77 6.18-10.35 9.58-17.09 9.58z" fill="#e6e6e6" p-id="2227"></path><path d="M511.11 858.07h-74.47c-11.05 0-20-8.95-20-20s8.95-20 20-20h74.47c11.05 0 20 8.95 20 20s-8.95 20-20 20zM359.8 848.34c-3.55 0-7.15-0.95-10.4-2.93-9.43-5.75-12.41-18.06-6.65-27.49l49.42-80.98c5.75-9.43 18.06-12.41 27.49-6.65 9.43 5.75 12.41 18.06 6.65 27.49l-49.42 80.98c-3.77 6.18-10.35 9.58-17.09 9.58z" fill="#e6e6e6" p-id="2228"></path><path d="M381.84 858.07h-52.91c-11.05 0-20-8.95-20-20s8.95-20 20-20h52.91c11.05 0 20 8.95 20 20s-8.95 20-20 20zM584.99 587.26h-52.88c-93.89 0-170.28-76.39-170.28-170.28 0-16.6 9.91-31.42 25.24-37.77 15.33-6.35 32.82-2.87 44.55 8.86l27.66 27.66c7.81 7.81 7.81 20.47 0 28.28-7.81 7.81-20.47 7.81-28.28 0l-27.66-27.66c-0.3-0.3-0.42-0.42-0.96-0.19-0.55 0.23-0.55 0.39-0.55 0.82 0 71.83 58.44 130.28 130.28 130.28h52.88c11.05 0 20 8.95 20 20s-8.95 20-20 20z" fill="#e6e6e6" p-id="2229"></path></svg>