<?xml version="1.0" standalone="no"?><!DOCTYPE svg PUBLIC "-//W3C//DTD SVG 1.1//EN" "http://www.w3.org/Graphics/SVG/1.1/DTD/svg11.dtd"><svg t="1780926824120" class="icon" viewBox="0 0 1024 1024" version="1.1" xmlns="http://www.w3.org/2000/svg" p-id="1847" xmlns:xlink="http://www.w3.org/1999/xlink" width="200" height="200"><path d="M928.8 557.5l-207.4 7.1c4.2-6.3 7.6-13.1 10.6-20.1l90.4-22.7c16-4 25.9-20.4 21.9-36.6-4-16.2-20.4-25.9-36.5-21.9l-68.3 17.2c-13-101-93.5-181.9-130.5-273.4 22.9 57 2.1 99.8-30.4 138.7-1.9-2-3.9-3.9-6.3-5.3-8.1-20.3-17.8-44-25.7-68-14.5-43.6-22.6-87.6-2.3-111.8-2 2.3-4 4.6-6.1 6.9-48.3 52.4-99.7 88.4-106.9 141.8-18.1-25.3-34.2-49.3-44.1-71.7 47.9 108.4-99 178.6-136.8 270.9l-27.6-8.4c-15.9-4.9-32.7 4.2-37.6 20.1-4.8 15.9 4.2 32.7 20.1 37.6l38.4 11.6c0.7 3.8 1.7 7.6 2.9 11.4l-75.9 2.6c-16.6 0.6-29.6 14.5-29 31.1 0.1 5.6 2 10.7 4.8 15L86.8 645c-16.2 4-25.9 20.4-21.9 36.5 3.7 14.6 17.5 24 32 22.7 1.5-0.2 3-0.5 4.5-0.8l188.8-47.5-120.6 66.7c-14.5 8.1-19.8 26.4-11.8 40.9 6.1 10.8 17.7 16.5 29.2 15.4 3.9-0.4 8-1.5 11.6-3.7l179.2-99-77 118.4c-9 13.9-5.1 32.6 8.8 41.7 5.9 3.8 12.7 5.3 19.3 4.8 8.8-0.8 17.2-5.5 22.3-13.5l119.5-183.7-36.1 183.7c-3.2 16.3 7.4 32.1 23.6 35.3 3 0.6 5.8 0.7 8.7 0.4 13-1.2 24.1-10.7 26.6-24.1l8.9-45c1.1 0 2.1 0.1 3.2 0 9-0.8 17.6-5.8 22.7-14l26.1-41.9L635.7 839c6.7 8.2 16.5 12 26.3 11.1 5.7-0.6 11.3-2.7 16-6.5 13-10.5 15-29.4 4.5-42.3L588 684.4l4.9-7.8 12.4 3.8 104.1 150c6.4 9.3 17.1 13.8 27.6 12.8 5-0.5 9.9-2.3 14.3-5.2 13.7-9.5 17-28.3 7.6-41.8l-60.7-87.5 113.6 34.5c3.9 1.2 7.8 1.5 11.5 1.2 11.8-1.1 22.3-9.2 26-21.2 4.9-15.9-4.2-32.7-20-37.6l-186.2-56.7-0.5-0.7 288.2-10c0.6 0 1.2 0 1.8-0.1 15.7-1.5 27.8-15 27.2-31-0.3-17.1-14.3-30.2-31-29.6z" p-id="1848" fill="#e6e6e6"></path></svg>