<?xml version="1.0" standalone="no"?><!DOCTYPE svg PUBLIC "-//W3C//DTD SVG 1.1//EN" "http://www.w3.org/Graphics/SVG/1.1/DTD/svg11.dtd"><svg t="1780930585369" class="icon" viewBox="0 0 1024 1024" version="1.1" xmlns="http://www.w3.org/2000/svg" p-id="1368" xmlns:xlink="http://www.w3.org/1999/xlink" width="200" height="200"><path d="M168.71568253517154 433.05354454040526h686.5528169345856c28.790924777984625 0 52.2033249092102-24.757031679153442 52.2033249092102-55.288066463470464 0-30.531035556793217-23.412400131225585-55.208971080780024-52.2033249092102-55.208971080780024H293.9245655441284l105.593089056015-111.76257293701171a57.50275340080261 57.50275340080261 0 0 0 0-78.14679505348207 50.384117975234986 50.384117975234986 0 0 0-73.8756142616272 0L135.7326723480225 333.6299393653869a52.75699645042419 52.75699645042419 0 0 0-5.615812339782715 6.960443887710571 56.711794166564935 56.711794166564935 0 0 0-13.60450238227844 37.17509482383728c0 30.531035556793217 23.33330397605896 55.288066463470464 52.2033249092102 55.288066463470464z m686.5528169345856 157.87550934791562H168.71568253517154c-28.87002016067505 0-52.2033249092102 24.757031679153442-52.2033249092102 55.208971080780024 0 30.531035556793217 23.33330397605896 55.288066463470464 52.2033249092102 55.288066463470464h561.3439331531524L624.4665274047852 813.1095682144164a57.50275340080261 57.50275340080261 0 0 0 0 78.14679582595825 50.225926437377936 50.225926437377936 0 0 0 73.8756142616272 0l189.9093679904938-200.90370497703555a53.468860301971425 53.468860301971425 0 0 0 5.615811567306519-7.039539270401001 56.711794166564935 56.711794166564935 0 0 0 13.60450315475464-37.17509482383728c0-30.45193940162659-23.412400131225585-55.208971080780024-52.2033249092102-55.208971080780024z" p-id="1369" fill="#e6e6e6"></path></svg>