<?xml version="1.0" standalone="no"?><!DOCTYPE svg PUBLIC "-//W3C//DTD SVG 1.1//EN" "http://www.w3.org/Graphics/SVG/1.1/DTD/svg11.dtd"><svg t="1780926841509" class="icon" viewBox="0 0 1024 1024" version="1.1" xmlns="http://www.w3.org/2000/svg" p-id="2418" xmlns:xlink="http://www.w3.org/1999/xlink" width="200" height="200"><path d="M288.711111 823.182222c-2.702222 0-5.688889-0.355556-7.964444-0.64-83.768889-11.164444-149.617778-27.306667-207.288889-50.631111-3.982222-1.635556-7.68-3.342222-11.022222-5.12-32.426667-17.422222-51.84-42.026667-54.613334-69.404444-2.773333-27.164444 11.022222-54.968889 38.897778-78.364445 51.128889-42.88 112.071111-65.848889 175.217778-87.466666 96.64-33.066667 198.186667-53.617778 296.391111-73.528889 16.568889-3.342222 33.137778-6.684444 49.635555-10.097778 25.315556-5.191111 54.044444-11.164444 80.995556-22.186667 0.853333-0.355556 1.777778-0.711111 2.702222-1.066666 6.257778-2.346667 14.791111-5.617778 15.288889-14.008889 0.568889-8.817778-7.751111-11.662222-13.226667-13.582223-1.351111-0.497778-2.702222-0.924444-3.911111-1.493333-31.36-14.08-65.208889-17.28-97.92-20.408889l-6.897777-0.64c-17.92-1.777778-36.124444-2.702222-53.76-3.626666-30.08-1.564444-61.226667-3.2-91.377778-8.817778-16.497778-3.057778-29.368889-7.253333-40.533334-13.155556-14.506667-7.608889-23.111111-17.92-24.248888-29.084444-1.137778-11.093333 5.12-22.968889 17.706666-33.351111 20.337778-16.782222 44.373333-26.666667 65.208889-34.133334 70.257778-25.031111 146.773333-39.751111 248.177778-47.715555 33.351111-2.631111 69.688889-3.84 114.488889-3.84l5.973333-0.071111c10.24 0 14.862222 1.635556 15.217778 11.377777 0.355556 12.088889-6.4 18.56-20.622222 19.84-38.328889 3.555556-71.68 11.733333-101.973334 24.96-2.133333 0.924444-4.48 1.848889-6.968889 2.773334-11.093333 4.195556-24.888889 9.386667-23.822222 21.262222 1.208889 12.8 15.217778 14.008889 26.524445 14.933333 2.915556 0.213333 5.688889 0.497778 8.177777 0.924445 24.462222 4.195556 49.422222 7.395556 73.6 10.453333 38.826667 4.906667 79.004444 10.026667 117.617778 19.555556 39.395556 9.671111 74.524444 19.484444 105.031111 41.102222 22.186667 15.715556 34.488889 33.493333 36.622223 52.764444 2.133333 19.2-5.902222 39.111111-23.964445 59.164445-19.057778 21.191111-44.302222 37.191111-77.155555 48.924444-36.551111 13.013333-73.884444 25.884444-110.008889 38.257778-35.697778 12.231111-72.604444 24.888889-108.8 37.831111-32.853333 11.733333-75.306667 28.728889-112.568889 56.32-1.28 0.924444-2.56 1.848889-3.911111 2.844445-10.951111 7.893333-24.604444 17.706667-22.684445 33.92 1.92 16.284444 17.137778 20.977778 29.368889 24.675555 2.275556 0.711111 4.551111 1.422222 6.684445 2.133333 45.795556 16.142222 93.511111 20.977778 134.115555 23.537778 47.146667 2.986667 95.146667 4.835556 141.582222 6.613334 16.782222 0.64 33.564444 1.28 50.346667 1.991111 13.866667 0.568889 20.48 2.702222 20.693333 13.297777 0.071111 4.124444-0.853333 7.182222-2.915555 9.244445-3.768889 3.84-11.164444 4.266667-16.426667 4.266667l-14.008889-0.142223c-98.773333-0.853333-200.96-1.777778-299.591111-24.32-23.822222-5.475556-41.813333-12.657778-56.604444-22.684444-12.942222-8.746667-20.906667-20.124444-23.04-32.924445-2.133333-12.657778 1.635556-25.884444 10.88-38.186666 18.275556-24.391111 43.448889-39.608889 65.777777-51.271111 65.991111-34.488889 137.813333-57.528889 207.288889-79.715556l18.702223-5.973333c31.217778-9.955556 63.573333-20.266667 93.724444-34.986667 20.906667-10.168889 44.16-23.964444 58.382222-48.782222 8.533333-14.862222 6.968889-28.017778-4.693333-40.248889-12.444444-13.013333-27.804444-22.755556-48.497778-30.791111-59.164444-22.968889-122.24-31.217778-183.253333-39.182222L732.444444 332.8l-13.44-1.706667c-23.253333-2.915556-47.36-5.902222-69.973333-13.368889-16.995556-5.617778-31.217778-11.733333-33.92-30.293333-2.417778-16.497778 6.471111-26.808889 21.546667-37.973333 0.568889-0.426667 1.28-0.853333 1.92-1.28 2.986667-1.848889 7.111111-4.408889 8.177778-10.88l0.782222-4.622222-4.622222 0.568888c-66.417778 7.751111-144.64 19.626667-221.297778 49.137778-12.728889 4.906667-22.257778 9.244444-30.791111 13.937778-1.706667 0.924444-3.697778 1.777778-5.688889 2.702222-7.608889 3.342222-17.066667 7.537778-15.928889 16.853334 1.28 10.595556 12.444444 12.657778 20.622222 14.151111 2.062222 0.355556 4.053333 0.711111 5.902222 1.208889 28.586667 7.537778 58.24 9.102222 86.897778 10.595555 7.111111 0.355556 14.222222 0.711111 21.404445 1.208889l7.324444 0.497778c41.102222 2.631111 83.626667 5.404444 124.302222 16 21.546667 5.617778 37.76 13.368889 50.986667 24.32 8.32 6.897778 13.013333 15.075556 13.511111 23.68 0.497778 8.746667-3.271111 17.706667-11.022222 25.742222-13.368889 14.008889-31.431111 23.182222-56.96 28.8-37.12 8.248889-74.311111 16.284444-111.502222 24.248889-45.653333 9.813333-92.871111 19.982222-139.164445 30.506667-101.12 22.968889-176.426667 47.573333-244.266667 79.644444-26.808889 12.657778-54.755556 27.52-77.724444 50.417778-17.422222 17.28-25.031111 34.204444-22.684444 50.346666 2.346667 15.928889 14.222222 29.795556 35.413333 41.173334 44.017778 23.68 92.728889 33.777778 139.875555 43.591111 10.311111 2.133333 20.622222 4.195556 30.933334 6.257778 14.222222 2.844444 28.444444 5.617778 42.595555 8.675555 13.155556 2.844444 17.635556 7.466667 15.928889 16.355556-1.28 7.182222-4.906667 9.884444-12.871111 9.884444z" fill="#e6e6e6" p-id="2419"></path></svg>