<svg t="1780559132865" class="icon" viewBox="0 0 1024 1024" version="1.1" xmlns="http://www.w3.org/2000/svg" xmlns:xlink="http://www.w3.org/1999/xlink" width="200" height="200"><path d="M275.2 870.4H179.2c-32 0-57.6-25.6-57.6-57.6V499.2c0-32 25.6-57.6 57.6-57.6h102.4c32 0 57.6 25.6 57.6 57.6v313.6c0 32-32 57.6-64 57.6z m-76.8-76.8h64V512h-64v281.6zM563.2 870.4H460.8c-32 0-57.6-25.6-57.6-57.6V57.6c0-32 25.6-57.6 57.6-57.6h102.4c32 0 57.6 25.6 57.6 57.6v748.8c0 38.4-25.6 64-57.6 64z m-83.2-76.8h64V76.8h-64v716.8zM844.8 870.4h-102.4c-32 0-57.6-25.6-57.6-57.6V352c0-32 25.6-57.6 57.6-57.6h102.4c32 0 57.6 25.6 57.6 57.6v256c0 19.2-19.2 38.4-38.4 38.4s-38.4-19.2-38.4-38.4V364.8h-64v422.4h64v-38.4c0-19.2 19.2-38.4 38.4-38.4s38.4 19.2 38.4 38.4v57.6c0 38.4-25.6 64-57.6 64z" fill="#e6e6e6"></path><path d="M947.2 1024H70.4c-19.2 0-32-12.8-32-32v-19.2c0-19.2 12.8-32 32-32h876.8c19.2 0 32 12.8 32 32v19.2c6.4 19.2-12.8 32-32 32z" fill="#e6e6e6"></path></svg>