<svg xmlns="http://www.w3.org/2000/svg" viewBox="0 0 64 64">
  <defs>
    <linearGradient id="bodyGradient" x1="0%" y1="0%" x2="0%" y2="100%">
      <stop offset="0%" style="stop-color:#D4A574"/>
      <stop offset="50%" style="stop-color:#C4956A"/>
      <stop offset="100%" style="stop-color:#8B6914"/>
    </linearGradient>
    <linearGradient id="legGradient" x1="0%" y1="0%" x2="0%" y2="100%">
      <stop offset="0%" style="stop-color:#8B6914"/>
      <stop offset="100%" style="stop-color:#5D3A1A"/>
    </linearGradient>
    <filter id="shadow" x="-20%" y="-20%" width="140%" height="140%">
      <feDropShadow dx="1" dy="2" stdDeviation="1" flood-color="#000" flood-opacity="0.2"/>
    </filter>
  </defs>
  <ellipse cx="32" cy="52" rx="5" ry="3" fill="#5D3A1A" filter="url(#shadow)"/>
  <ellipse cx="12" cy="54" rx="4" ry="2.5" fill="#5D3A1A"/>
  <ellipse cx="52" cy="54" rx="4" ry="2.5" fill="#5D3A1A"/>
  <path d="M12 42C12 48 8 52 12 54C14 55 16 53 16 48C16 45 14 43 12 42Z" fill="url(#legGradient)"/>
  <path d="M52 42C52 48 56 52 52 54C50 55 48 53 48 48C48 45 50 43 52 42Z" fill="url(#legGradient)"/>
  <path d="M32 42C32 48 32 52 32 54C32 55 32 53 32 48C32 45 32 43 32 42Z" fill="url(#legGradient)"/>
  <ellipse cx="32" cy="40" rx="22" ry="12" fill="url(#bodyGradient)" filter="url(#shadow)"/>
  <ellipse cx="32" cy="35" rx="18" ry="8" fill="#D4A574"/>
  <ellipse cx="32" cy="32" rx="14" ry="4" fill="#A67C52"/>
  <ellipse cx="32" cy="30" rx="12" ry="2" fill="#8B6914"/>
  <circle cx="32" cy="38" r="6" fill="#8B6914"/>
  <path d="M32 34L32 42M32 38L28 38M32 38L36 38M32 34L30 36M32 34L34 36M32 42L30 40M32 42L34 40" stroke="#5D3A1A" stroke-width="1" stroke-linecap="round"/>
  <rect x="24" y="22" width="2" height="10" rx="1" fill="#5D3A1A"/>
  <rect x="31" y="16" width="2" height="14" rx="1" fill="#5D3A1A"/>
  <rect x="39" y="22" width="2" height="10" rx="1" fill="#5D3A1A"/>
  <path d="M25 20C25 20 21 14 23 11C23.8 8 24.8 11 25 11C25 11 25.2 8 26 11C28 14 25 20 25 20Z" fill="#FFE4B5" opacity="0.9"/>
  <path d="M25 9C25 9 22 4 23.5 1.5C24 0 24.8 1.5 25 1.5C25 1.5 25.2 0 25.5 1.5C27 4 25 9 25 9Z" fill="#FFD700" opacity="0.7"/>
  <path d="M32 14C32 14 28 8 30 5C30.8 2 31.8 5 32 5C32 5 32.2 2 33 5C35 8 32 14 32 14Z" fill="#FFE4B5" opacity="0.9"/>
  <path d="M32 3C32 3 29 0 30.5 0C31 0 31.8 0 32 0C32 0 32.2 0 32.5 0C34 0 32 3 32 3Z" fill="#FFD700" opacity="0.7"/>
  <path d="M39 20C39 20 35 14 37 11C37.8 8 38.8 11 39 11C39 11 39.2 8 40 11C42 14 39 20 39 20Z" fill="#FFE4B5" opacity="0.9"/>
  <path d="M39 9C39 9 36 4 37.5 1.5C38 0 38.8 1.5 39 1.5C39 1.5 39.2 0 39.5 1.5C41 4 39 9 39 9Z" fill="#FFD700" opacity="0.7"/>
</svg>