<?xml version="1.0" standalone="no"?><!DOCTYPE svg PUBLIC "-//W3C//DTD SVG 1.1//EN" "http://www.w3.org/Graphics/SVG/1.1/DTD/svg11.dtd"><svg t="1780887668392" class="icon" viewBox="0 0 1024 1024" version="1.1" xmlns="http://www.w3.org/2000/svg" p-id="1120" xmlns:xlink="http://www.w3.org/1999/xlink" width="200" height="200"><path d="M757.8 163.4s12 313.4-115.9 375.1c0 0 9.4-1.9 24.1-1.9 32.5 0 91 9.2 132.5 68.5 0 0-55.7 27.6-159.5 121.8 0 0-60.6 56.3-129.8 56.3-35.9 0-74.1-15.2-107.3-61.2 0 0-10.7 4.9-25 4.9-29.8 0-75.1-21.1-72-151 0 0 30.6-105.6-63.3-105.6-4.9 0-10.1 0.3-15.7 0.9 0 0 41.5-35.8 88.2-35.8 30.3 0 62.9 15.1 87.8 64.7 0 0.1 0.1 0.2 0.1 0.3 0-0.1-0.1-0.2-0.1-0.3-6.9-15.3 48.4-146.2 194.3-194.6-0.2 0 118-56 161.6-142.1m0-35.4c-11.8 0-22.9 6.9-28.8 18.4-30.9 60.8-113.2 110.7-144.6 125.9-95.9 32.5-160.4 99.7-193 157.6-26.6-23.8-55-30-77.4-30-56.6 0-103.5 39.1-108.7 43.6-11.4 9.8-15.4 26.5-9.9 41 5.1 13.4 17.2 22.1 30.4 22.1 1.1 0 2.2-0.1 3.3-0.2 4.4-0.5 8.6-0.7 12.4-0.7 10.5 0 24.2 1.8 30 10.3 8.7 12.8 4.5 40.7 2 49.4-0.9 3.1-1.4 6.4-1.5 9.7-1.8 75 11.1 126.6 39.2 157.8 17.5 19.4 40.2 29.6 65.6 29.6 4.7 0 9.1-0.4 13.2-0.9 33.1 37.5 73.9 57.2 119.1 57.2 79.1 0 146.1-60.2 151-64.7 98-88.8 151.6-116.4 152.1-116.7 9-4.5 15.6-13.2 18-23.6 2.4-10.4 0.4-21.4-5.6-29.9-30.6-43.7-68.7-64.8-102.4-74.6 27.2-41.7 46.7-100.4 58-175.6 13.4-88.6 10.5-168.2 10.4-171.6-0.6-15.9-11-29.4-25.3-33-2.5-0.8-5-1.1-7.5-1.1z" fill="#10B981" p-id="1121"></path><path d="M456.8 895.6c-3.4 0-6.8-1.1-9.7-3.5-76.3-60.9-62-168.3-61.4-172.8 0.1-1 0.4-1.9 0.6-2.9 60.1-197.1 160.7-295.8 164.9-300 0.3-0.3 0.6-0.5 0.9-0.8C707.7 285.2 741.7 159.9 742 158.7c2.4-9.4 11.5-14.9 20.2-12.3 8.7 2.6 13.8 12.3 11.4 21.7-1.4 5.5-36.4 136.9-200.9 275.2-6.4 6.5-99.3 101.9-154.8 282.7-1.2 11.1-7.7 92.8 48.6 137.7 7.3 5.8 8.8 16.9 3.4 24.8-3.1 4.7-8.1 7.1-13.1 7.1z" fill="#10B981" p-id="1122"></path><path d="M401.9 739.7c-4.6 0-9-2.1-12.1-5.7-23.2-27.1-33.3-124.2-35.1-143.4-6.2-51.3-22.2-85.4-47.5-101-33.9-20.8-74.5-2.4-74.9-2.2-8.3 3.9-18-0.3-21.6-9.3-3.6-9 0.3-19.4 8.6-23.3 2.3-1.1 56.2-25.5 104.1 4 34.8 21.4 56.2 64.3 63.9 127.7 4.1 44 13.5 96.6 22.8 117 22.5-2.6 88.3-14.1 186-63.6 13.8-10 134.4-93.9 210-50.5 8 4.6 11 15.3 6.8 24-4.3 8.6-14.2 11.9-22.2 7.3-50.7-29.1-145.1 25.7-177.2 49.3-0.7 0.5-1.5 1-2.3 1.4-129.6 65.8-205.9 68.2-209.1 68.3h-0.2z" fill="#10B981" p-id="1123"></path></svg>