<svg t="1780558874188" class="icon" viewBox="0 0 1024 1024" version="1.1" xmlns="http://www.w3.org/2000/svg" xmlns:xlink="http://www.w3.org/1999/xlink" width="200" height="200"><path d="M938.752 832a42.666667 42.666667 0 0 1 3.2 85.226667l-3.2 0.106666H700.437333l12.48 12.501334a42.666667 42.666667 0 0 1 2.496 57.621333l-2.496 2.709333a42.666667 42.666667 0 0 1-57.621333 2.496l-2.709333-2.496-85.333334-85.333333c-26.090667-26.090667-8.917333-70.144 26.88-72.704l3.285334-0.128h341.333333z" fill="#e6e6e6"></path><path d="M256 21.333333a42.666667 42.666667 0 0 1 22.336 6.314667l3.264 2.218667 51.2 38.4a298.666667 298.666667 0 0 0 352.341333 4.416L691.2 68.266667l51.2-38.4a42.666667 42.666667 0 0 1 21.653333-8.341334L768 21.333333h42.666667a42.666667 42.666667 0 0 1 15.466666 2.901334l3.626667 1.6 111.530667 55.765333a128 128 0 0 1 68.906666 136.106667l-1.002666 5.205333-32.512 151.722667a128.042667 128.042667 0 0 1-121.749334 101.162666H853.333333V490.666667a42.666667 42.666667 0 0 1-39.466666 42.56L810.666667 533.333333a42.666667 42.666667 0 0 1-42.56-39.466666L768 490.666667v-64a42.666667 42.666667 0 0 1 47.872-42.346667l3.157333 0.512 24.128 4.821333a42.666667 42.666667 0 0 0 49.28-29.696l0.810667-3.2 32.512-151.722666a42.666667 42.666667 0 0 0-19.648-45.44l-2.986667-1.664L800.618667 106.666667h-18.410667L742.4 136.533333a384 384 0 0 1-453.930667 5.034667L281.6 136.533333 241.792 106.666667h-18.432L120.874667 157.930667a42.666667 42.666667 0 0 0-23.210667 43.733333l0.576 3.370667 32.512 151.722666a42.666667 42.666667 0 0 0 46.826667 33.429334l3.264-0.533334 24.106666-4.821333a42.666667 42.666667 0 0 1 50.944 38.634667L256 426.666667v405.333333a42.666667 42.666667 0 0 0 39.466667 42.56L298.666667 874.666667h170.666666a42.666667 42.666667 0 0 1 3.2 85.226666L469.333333 960h-170.666666a128 128 0 0 1-127.914667-123.2L170.666667 832V475.797333h-1.6a128.064 128.064 0 0 1-123.2-127.914666l-0.554667-10.069334 32.512-151.722667a42.666667 42.666667 0 0 0-19.648-45.44l-2.986667-1.664L42.666667 157.930667 21.333333 106.666667a42.666667 42.666667 0 0 1 15.466667-52.053334l3.626666-1.6 111.530667-55.765333A42.666667 42.666667 0 0 1 204.8 0h51.2z" fill="#e6e6e6"></path></svg>