<?xml version="1.0" standalone="no"?><!DOCTYPE svg PUBLIC "-//W3C//DTD SVG 1.1//EN" "http://www.w3.org/Graphics/SVG/1.1/DTD/svg11.dtd"><svg t="1780926831039" class="icon" viewBox="0 0 1024 1024" version="1.1" xmlns="http://www.w3.org/2000/svg" p-id="2037" xmlns:xlink="http://www.w3.org/1999/xlink" width="200" height="200"><path d="M6.570552 1014.570832a221.265461 221.265461 0 0 1-6.527885 0h6.527885zM308.474602 1023.445343l7.338539-0.725321-7.338539 0.725321zM300.453409 1023.957334a98.686273 98.686273 0 0 0-4.90658 0h4.90658zM10.581149 322.657607c0.085332-0.383993 0.426659-0.725321 0.426659-1.109314l-1.365309 0.554657v0.042666c-0.341327 2.645287 0 2.773285 0.93865 0.511991zM10.709147 1014.357502l2.431957-0.127998-2.431957 0.127998zM574.32595 1009.834915a72.190737 72.190737 0 0 0-3.199944 0h3.199944zM40.0633 1011.370888a526.924112 526.924112 0 0 1-21.674288 2.645287c7.253206-0.511991 14.506413-1.450641 21.674288-2.645287zM588.064376 1008.725601c-1.194646 0.170664-2.389292 0.170664-3.583937 0.298661l3.669269-0.255995-0.085332-0.042666 4.437256-0.682655-4.437256 0.682655zM584.480439 1008.981596l-4.906581 0.511991 4.906581-0.511991zM10.581149 239.629726c0.085332-0.383993 0.426659-0.767987 0.426659-1.151979l-1.365309 0.639988c-0.341327 2.645287 0 2.773285 0.93865 0.511991zM13.18377 931.201624l-2.517289 0.127998c0.853318 0 1.663971-0.085332 2.517289-0.127998zM40.0633 928.343007a520.097565 520.097565 0 0 1-21.716954 2.645287c7.295872-0.511991 14.549079-1.407975 21.716954-2.645287zM6.570552 931.500285c1.365309 0.042666 2.687953-0.085332 4.095929-0.170663-3.541271 0.170664-7.082543 0.170664-10.623814 0.170663h6.527885zM300.453409 940.929454c2.730619 0 5.375906-0.255996 8.021193-0.511991a163.410474 163.410474 0 0 1-12.885107 0.511991h4.863914z" p-id="2038" fill="#e6e6e6"></path><path d="M906.864131 482.697473c10.325153-143.99748-110.931392-242.897083-245.158377-225.532053C566.390089-20.333724 137.170934-137.878334 10.922476 238.520413a231.931941 231.931941 0 0 1 47.99916-17.919687A436.472362 436.472362 0 0 0 10.922476 321.548293c160.850518-80.638589 326.778281 51.327102 351.481849 214.737575l-0.085332 0.597323c-24.490238 155.559944-158.973218 363.513639-322.298359 391.502482a497.1433 497.1433 0 0 0 123.475172-34.516729 2104.197843 2104.197843 0 0 0 93.267701-35.02872c-57.556326 77.139983-133.373666 138.280247-216.742873 152.57333a493.644695 493.644695 0 0 0 123.475172-34.559396c162.30116-57.129667 337.444761-133.501664 439.202981-287.226973 16.767707-25.130227 31.231453-51.796427 43.433906-79.657273l0.511991 2.346626a201.383142 201.383142 0 0 1-11.861125 38.015335c-47.06051 115.880639-186.834064 271.269919-313.423849 288.976276a494.540679 494.540679 0 0 0 101.630222-26.026211 1611.577131 1611.577131 0 0 0 129.448401-47.188508c-63.99888 77.481311-150.226704 144.978796-231.078623 156.327931a500.17258 500.17258 0 0 0 101.630222-26.068877c62.292243-20.223646 127.656433-43.647236 190.076673-75.049353a364.708284 364.708284 0 0 0 43.775234-12.373117c47.273839-14.506413 97.320964-31.487449 145.874781-55.337699-50.516449 67.582817-138.45091 142.205511-210.214988 154.535963a357.113751 357.113751 0 0 0 64.340207-16.21305c89.043775-27.263523 188.028709-63.657553 267.771314-137.000269 91.262403-83.923865 112.126038-163.069146 92.841042-217.340197 26.410204-89.897093-29.866144-154.578628-110.590064-154.877289z m-286.586985 434.808391a695.582494 695.582494 0 0 0 110.590065-69.929443c-34.900723 30.762128-73.897373 56.745674-110.590065 69.929443z" p-id="2039" fill="#e6e6e6"></path><path d="M315.813141 939.649476l-7.338539 0.767987c2.431957-0.170664 4.863915-0.426659 7.338539-0.767987z" p-id="2040" fill="#e6e6e6"></path></svg>