<?xml version="1.0" standalone="no"?><!DOCTYPE svg PUBLIC "-//W3C//DTD SVG 1.1//EN" "http://www.w3.org/Graphics/SVG/1.1/DTD/svg11.dtd"><svg t="1780926818301" class="icon" viewBox="0 0 1024 1024" version="1.1" xmlns="http://www.w3.org/2000/svg" p-id="1650" xmlns:xlink="http://www.w3.org/1999/xlink" width="200" height="200"><path d="M565.768712 423.110112H72.419444a22.378321 22.378321 0 1 1 0-44.756642h493.346071c63.074896 0 114.39478-51.319884 114.39478-114.397977s-51.319884-114.397977-114.39478-114.397977a22.378321 22.378321 0 1 1 0-44.756642c87.754987 0 159.151422 71.396435 159.151422 159.154619s-71.393238 159.154619-159.148225 159.154619z" fill="#e6e6e6" p-id="1651"></path><path d="M817.333009 534.918598h-493.346071a22.378321 22.378321 0 1 1 0-44.756642h493.346071c63.078093 0 114.397977-51.319884 114.397977-114.401174 0-63.078093-51.319884-114.397977-114.397977-114.397977a22.378321 22.378321 0 1 1 0-44.756642c87.758184 0 159.154619 71.396435 159.154619 159.154619s-71.396435 159.157816-159.154619 159.157816zM705.524523 926.2451a22.378321 22.378321 0 1 1 0-44.756642c63.078093 0 114.397977-51.319884 114.397977-114.401174 0-63.078093-51.319884-114.397977-114.397977-114.397977H212.178452a22.378321 22.378321 0 1 1 0-44.756642h493.346071c87.758184 0 159.154619 71.396435 159.154619 159.154619s-71.393238 159.157816-159.154619 159.157816z" fill="#e6e6e6" p-id="1652"></path></svg>